<?xml version="1.0" standalone="no"?><!DOCTYPE svg PUBLIC "-//W3C//DTD SVG 1.1//EN" "http://www.w3.org/Graphics/SVG/1.1/DTD/svg11.dtd"><svg t="1689505959198" class="icon" viewBox="0 0 1024 1024" version="1.1" xmlns="http://www.w3.org/2000/svg" p-id="7022" xmlns:xlink="http://www.w3.org/1999/xlink" width="200" height="200"><path d="M840.5 528.2L648.7 860.7 627.8 960l75.5-67.8L895 559.8l-54.5-31.6zM904 418.2l-31.5 54.6 54.5 31.5 31.5-54.6-54.5-31.5z" p-id="7023" fill="#1296db"></path><path d="M128 896V249.7c9.9 3.4 20.5 5.3 31.5 5.3H768v356.9L832 500V255c0-35.3-28.7-64-64-64h-32V96c0-17.7-14.3-32-32-32H159.5C106.8 64 64 106.8 64 159.5V896c0 35.3 28.7 64 64 64h442.2l36.6-64H128z m31.5-768H672v63H159.5c-17.4 0-31.5-14.1-31.5-31.5s14.1-31.5 31.5-31.5zM768 827.5V896h-39.2l-36.6 64H768c35.3 0 64-28.7 64-64V715.7l-64 111.8z" p-id="7024" fill="#1296db"></path><path d="M640 384H256c-17.7 0-32 14.3-32 32s14.3 32 32 32h384c17.7 0 32-14.3 32-32s-14.3-32-32-32zM512 512H256c-17.7 0-32 14.3-32 32s14.3 32 32 32h256c17.7 0 32-14.3 32-32s-14.3-32-32-32z" p-id="7025" fill="#1296db"></path></svg>